<svg id="svg" version="1.1" xmlns="http://www.w3.org/2000/svg" xmlns:xlink="http://www.w3.org/1999/xlink" width="400" height="400" viewBox="0, 0, 400,400"><g id="svgg"><path id="path0" d="M188.860 0.155 C 188.283 0.209,186.160 0.379,184.142 0.533 C 92.119 7.559,16.322 77.900,2.251 169.332 C 0.501 180.708,0.131 186.053,0.131 200.000 C 0.131 312.274,90.660 401.462,203.062 399.922 C 312.574 398.422,399.806 309.923,399.862 200.262 C 399.911 107.636,337.995 28.161,248.362 5.796 C 238.795 3.409,229.685 1.873,217.693 0.626 C 214.013 0.243,191.809 -0.119,188.860 0.155 M208.126 6.674 C 242.674 7.570,280.453 20.193,309.961 40.700 C 409.468 109.857,422.245 251.399,336.704 336.968 C 251.918 421.783,110.453 409.408,41.552 311.148 C -26.860 213.586,8.338 77.976,115.601 25.858 C 141.953 13.053,175.866 5.382,201.311 6.469 C 202.248 6.509,205.315 6.601,208.126 6.674 M49.206 91.850 C 41.901 93.833,48.794 103.257,59.900 106.472 L 61.992 107.077 99.607 107.077 L 137.221 107.077 138.460 106.505 C 144.331 103.793,137.817 95.462,127.268 92.190 L 125.426 91.619 87.942 91.564 C 57.915 91.521,50.210 91.578,49.206 91.850 M274.923 91.747 C 264.029 93.605,255.050 103.507,261.540 106.505 L 262.779 107.077 300.393 107.077 L 338.008 107.077 340.100 106.472 C 350.537 103.451,357.252 95.107,351.623 92.154 C 350.533 91.582,278.142 91.198,274.923 91.747 M70.613 129.650 C 63.936 132.018,71.462 141.428,82.237 144.183 C 84.604 144.789,157.617 144.994,159.752 144.401 C 166.932 142.408,159.242 132.310,148.602 129.759 C 145.661 129.054,72.581 128.952,70.613 129.650 M251.282 129.771 C 240.648 132.384,233.085 142.413,240.248 144.401 C 242.394 144.997,315.398 144.788,317.778 144.180 C 328.439 141.453,335.938 132.178,329.482 129.705 C 327.554 128.966,254.306 129.028,251.282 129.771 M86.107 155.262 C 79.278 157.935,86.864 167.436,97.864 169.987 C 100.910 170.694,174.633 170.446,175.857 169.725 C 181.279 166.531,173.988 157.888,163.816 155.450 C 161.134 154.807,87.724 154.630,86.107 155.262 M236.566 155.301 C 225.649 157.714,217.635 168.032,225.074 170.097 C 226.759 170.565,299.773 170.475,302.003 170.002 C 312.196 167.841,320.426 158.420,314.633 155.544 C 313.322 154.893,239.452 154.664,236.566 155.301 M151.769 173.023 C 146.278 175.508,146.696 183.494,152.407 185.198 C 154.037 185.684,171.952 185.762,173.652 185.291 C 179.745 183.599,179.888 174.429,173.847 172.751 C 171.795 172.181,153.120 172.411,151.769 173.023 M226.063 173.887 C 220.666 176.400,221.389 184.482,227.154 186.082 C 228.902 186.568,246.768 186.464,248.469 185.959 C 254.054 184.301,254.417 176.250,249.017 173.808 C 247.049 172.919,228.002 172.984,226.063 173.887 M197.903 182.950 C 183.658 184.875,177.812 201.946,187.933 212.067 C 198.761 222.895,217.103 215.307,217.103 200.000 C 217.103 189.698,207.972 181.589,197.903 182.950 M151.338 192.563 C 146.194 194.386,145.891 201.863,150.852 204.545 C 152.508 205.440,172.540 205.428,174.218 204.531 C 179.152 201.892,178.752 194.306,173.587 192.546 C 171.866 191.960,152.999 191.974,151.338 192.563 M225.950 193.260 C 220.294 195.078,220.561 203.966,226.321 205.641 C 228.790 206.358,247.195 206.101,248.638 205.329 C 253.167 202.904,253.459 196.505,249.162 193.847 L 247.880 193.054 237.374 193.009 C 230.194 192.979,226.577 193.058,225.950 193.260 M150.983 213.705 C 145.321 215.525,145.594 224.412,151.363 226.089 C 153.843 226.810,172.224 226.549,173.674 225.773 C 178.179 223.362,178.470 216.937,174.195 214.293 L 172.912 213.499 162.406 213.455 C 155.227 213.424,151.610 213.504,150.983 213.705 M225.164 214.700 C 220.150 216.970,219.935 223.991,224.804 226.477 L 226.081 227.130 235.911 227.209 C 242.453 227.261,246.126 227.191,246.892 226.999 C 252.734 225.534,253.559 217.312,248.118 214.779 C 246.177 213.875,227.131 213.810,225.164 214.700 M99.222 228.860 C 87.716 230.559,78.151 242.165,86.740 244.007 C 88.517 244.388,159.800 244.417,162.138 244.037 C 172.938 242.284,182.126 232.253,175.666 229.268 L 174.443 228.702 137.615 228.666 C 117.359 228.646,100.082 228.733,99.222 228.860 M225.879 228.840 C 217.575 230.260,223.836 239.890,235.447 243.557 L 237.353 244.158 274.569 244.235 C 314.643 244.317,313.885 244.341,315.473 242.946 C 319.263 239.618,312.775 232.381,303.350 229.425 L 301.048 228.702 264.089 228.664 C 243.761 228.643,226.567 228.722,225.879 228.840 M84.089 254.540 C 73.348 256.136,63.881 266.139,70.176 269.239 L 71.429 269.856 108.126 269.936 C 134.678 269.994,145.354 269.934,146.743 269.717 C 157.572 268.030,166.781 258.107,160.425 254.975 L 159.240 254.391 122.412 254.354 C 102.156 254.334,84.911 254.417,84.089 254.540 M241.089 254.527 C 233.022 255.908,238.953 265.266,250.328 269.104 L 252.556 269.856 290.564 269.856 L 328.571 269.856 329.757 269.272 C 335.561 266.411,328.617 258.025,317.824 254.860 C 316.112 254.357,243.908 254.045,241.089 254.527 M60.944 292.393 C 50.742 294.638,42.672 303.477,47.873 306.710 L 48.886 307.339 87.418 307.339 L 125.950 307.339 127.716 306.759 C 138.533 303.205,144.670 294.440,137.774 292.392 C 135.937 291.847,63.424 291.847,60.944 292.393 M262.516 292.246 C 255.284 294.016,260.860 302.726,271.702 306.595 L 273.788 307.339 311.883 307.409 C 352.411 307.484,351.424 307.514,352.768 306.169 C 356.130 302.807,350.324 296.150,341.284 293.003 L 338.794 292.136 301.048 292.095 C 280.288 292.072,262.949 292.140,262.516 292.246 " stroke="none" fill="#fafafa" fill-rule="evenodd"></path><path id="path1" d="M193.316 6.586 C 99.506 9.412,20.731 80.776,8.143 174.337 C -7.105 287.672,79.941 390.310,193.937 393.411 C 326.964 397.031,423.588 270.489,385.022 143.159 C 361.475 65.413,288.028 8.745,208.126 6.674 C 205.315 6.601,202.248 6.509,201.311 6.469 C 200.374 6.429,196.776 6.482,193.316 6.586 M127.268 92.190 C 137.817 95.462,144.331 103.793,138.460 106.505 L 137.221 107.077 99.607 107.077 L 61.992 107.077 59.900 106.472 C 50.337 103.703,43.550 96.327,47.313 92.792 C 48.709 91.480,47.842 91.506,87.942 91.564 L 125.426 91.619 127.268 92.190 M351.623 92.154 C 357.252 95.107,350.537 103.451,340.100 106.472 L 338.008 107.077 300.393 107.077 L 262.779 107.077 261.540 106.505 C 255.050 103.507,264.029 93.605,274.923 91.747 C 278.142 91.198,350.533 91.582,351.623 92.154 M148.602 129.759 C 159.242 132.310,166.932 142.408,159.752 144.401 C 157.617 144.994,84.604 144.789,82.237 144.183 C 71.462 141.428,63.936 132.018,70.613 129.650 C 72.581 128.952,145.661 129.054,148.602 129.759 M329.482 129.705 C 335.938 132.178,328.439 141.453,317.778 144.180 C 315.398 144.788,242.394 144.997,240.248 144.401 C 233.085 142.413,240.648 132.384,251.282 129.771 C 254.306 129.028,327.554 128.966,329.482 129.705 M163.816 155.450 C 173.988 157.888,181.279 166.531,175.857 169.725 C 174.633 170.446,100.910 170.694,97.864 169.987 C 86.864 167.436,79.278 157.935,86.107 155.262 C 87.724 154.630,161.134 154.807,163.816 155.450 M314.633 155.544 C 320.426 158.420,312.196 167.841,302.003 170.002 C 299.773 170.475,226.759 170.565,225.074 170.097 C 217.635 168.032,225.649 157.714,236.566 155.301 C 239.452 154.664,313.322 154.893,314.633 155.544 M173.847 172.751 C 179.888 174.429,179.745 183.599,173.652 185.291 C 171.952 185.762,154.037 185.684,152.407 185.198 C 146.696 183.494,146.278 175.508,151.769 173.023 C 153.120 172.411,171.795 172.181,173.847 172.751 M249.017 173.808 C 254.417 176.250,254.054 184.301,248.469 185.959 C 246.768 186.464,228.902 186.568,227.154 186.082 C 221.389 184.482,220.666 176.400,226.063 173.887 C 228.002 172.984,247.049 172.919,249.017 173.808 M204.325 183.376 C 211.675 185.125,217.103 192.186,217.103 200.000 C 217.103 215.307,198.761 222.895,187.933 212.067 C 175.598 199.732,187.262 179.317,204.325 183.376 M173.587 192.546 C 178.752 194.306,179.152 201.892,174.218 204.531 C 172.540 205.428,152.508 205.440,150.852 204.545 C 145.891 201.863,146.194 194.386,151.338 192.563 C 152.999 191.974,171.866 191.960,173.587 192.546 M249.162 193.847 C 253.459 196.505,253.167 202.904,248.638 205.329 C 247.195 206.101,228.790 206.358,226.321 205.641 C 221.614 204.272,220.192 198.405,223.713 194.877 C 225.649 192.937,225.487 192.959,237.374 193.009 L 247.880 193.054 249.162 193.847 M174.195 214.293 C 178.470 216.937,178.179 223.362,173.674 225.773 C 172.224 226.549,153.843 226.810,151.363 226.089 C 146.647 224.718,145.221 218.855,148.746 215.322 C 150.682 213.382,150.519 213.405,162.406 213.455 L 172.912 213.499 174.195 214.293 M248.118 214.779 C 253.559 217.312,252.734 225.534,246.892 226.999 C 246.126 227.191,242.453 227.261,235.911 227.209 L 226.081 227.130 224.804 226.477 C 219.935 223.991,220.150 216.970,225.164 214.700 C 227.131 213.810,246.177 213.875,248.118 214.779 M175.666 229.268 C 182.126 232.253,172.938 242.284,162.138 244.037 C 159.800 244.417,88.517 244.388,86.740 244.007 C 79.295 242.411,85.230 233.155,95.945 229.651 C 98.979 228.659,100.251 228.629,137.615 228.666 L 174.443 228.702 175.666 229.268 M303.350 229.425 C 312.775 232.381,319.263 239.618,315.473 242.946 C 313.885 244.341,314.643 244.317,274.569 244.235 L 237.353 244.158 235.447 243.557 C 223.836 239.890,217.575 230.260,225.879 228.840 C 226.567 228.722,243.761 228.643,264.089 228.664 L 301.048 228.702 303.350 229.425 M160.425 254.975 C 166.781 258.107,157.572 268.030,146.743 269.717 C 145.354 269.934,134.678 269.994,108.126 269.936 L 71.429 269.856 70.176 269.239 C 63.881 266.139,73.348 256.136,84.089 254.540 C 84.911 254.417,102.156 254.334,122.412 254.354 L 159.240 254.391 160.425 254.975 M317.824 254.860 C 328.617 258.025,335.561 266.411,329.757 269.272 L 328.571 269.856 290.564 269.856 L 252.556 269.856 250.328 269.104 C 238.953 265.266,233.022 255.908,241.089 254.527 C 243.908 254.045,316.112 254.357,317.824 254.860 M137.774 292.392 C 144.670 294.440,138.533 303.205,127.716 306.759 L 125.950 307.339 87.418 307.339 L 48.886 307.339 47.873 306.710 C 42.672 303.477,50.742 294.638,60.944 292.393 C 63.424 291.847,135.937 291.847,137.774 292.392 M341.284 293.003 C 350.324 296.150,356.130 302.807,352.768 306.169 C 351.424 307.514,352.411 307.484,311.883 307.409 L 273.788 307.339 271.702 306.595 C 261.802 303.062,256.077 295.496,261.206 292.722 C 262.371 292.092,264.708 292.055,301.048 292.095 L 338.794 292.136 341.284 293.003 " stroke="none" fill="#040404" fill-rule="evenodd"></path></g></svg>